<?xml version="1.0" encoding="UTF-8"?>
<svg id="Layer_2" data-name="Layer 2" xmlns="http://www.w3.org/2000/svg" viewBox="0 0 1500 197.26">
  <defs>
    <style>
      .cls-1, .cls-2, .cls-3 {
        stroke-width: 0px;
      }

      .cls-1, .cls-3 {
        fill-rule: evenodd;
      }

      .cls-2, .cls-3 {
        fill: #fff;
      }
    </style>
  </defs>
  <g id="Primary_Logo" data-name="Primary Logo">
    <g id="Primary_Logo_-_White" data-name="Primary Logo - White">
      <g id="_Group_" data-name="&amp;lt;Group&amp;gt;">
        <path id="Fill-12-Copy-6" class="cls-3" d="m14.63,169.53c29.41,9.18,111.22,14.45,165.22,11.24l-29.13-78.21-13.17,2.23-11.71-45.39-13.17.74-13.17-43.9c-30.87,3.25-73.76,33.09-84.88,41.67v111.63Zm-14.63,11.24V50.11C37.93,20.07,74.42,3.37,109.47,0l13.46,44.52,13.17-1.49,12.38,44.53,12.5-1.37,41.41,109.87c-74.75,4.08-183.19-2.52-202.38-15.28Z"/>
        <path id="Path" class="cls-1" d="m14.63,169.53c29.41,9.18,111.22,14.45,165.22,11.24l-29.13-78.21-13.17,2.23-11.71-45.39-13.17.74-13.17-43.9c-30.87,3.25-73.76,33.09-84.88,41.67v111.63Z"/>
        <path id="Fill-13-Copy-5" class="cls-3" d="m24.88,154.65v-26.79c37.57,1.98,74.64-.5,111.22-7.44l13.17,38.7c-45.66,5.42-95.42.24-124.39-4.46Z"/>
        <path id="Fill-14-Copy-5" class="cls-3" d="m111.22,74.28c-14.4.92-50.39,7.01-86.25,21.44l-.09,21.72c36.68-.18,68.39-3.16,95.12-8.93l-8.78-34.23Z"/>
        <path id="Fill-15-Copy-5" class="cls-3" d="m24.88,83.21v-14.14c11.36-8.47,50.24-28.28,64.39-30.51l5.85,23.81c-17.85,2.03-43.56,10.48-70.24,20.84Z"/>
      </g>
      <g id="_Group_-2" data-name="&amp;lt;Group&amp;gt;">
        <path id="Path-2" data-name="Path" class="cls-2" d="m303.62,149.44c-8.42,0-16.24-1.12-23.44-3.37s-13.3-5.3-18.27-9.16l5.94-15.82c4.97,3.66,10.43,6.47,16.37,8.46,5.94,1.98,12.41,2.98,19.41,2.98,8.02,0,13.85-1.38,17.51-4.15s5.48-6.34,5.48-10.73c0-3.66-1.29-6.53-3.88-8.62-2.59-2.09-7.03-3.81-13.32-5.17l-16.75-3.6c-19.08-4.18-28.62-14.26-28.62-30.23,0-6.89,1.78-12.9,5.33-18.01,3.55-5.12,8.47-9.09,14.77-11.91,6.29-2.82,13.55-4.23,21.77-4.23,7.31,0,14.16,1.12,20.55,3.37,6.39,2.25,11.72,5.4,15.98,9.48l-5.94,15.04c-8.42-7.31-18.67-10.97-30.75-10.97-7,0-12.48,1.51-16.44,4.54-3.96,3.03-5.94,7-5.94,11.91,0,3.76,1.22,6.76,3.65,9.01,2.44,2.25,6.6,3.99,12.48,5.25l16.59,3.6c10.05,2.19,17.53,5.64,22.45,10.34,4.92,4.7,7.38,10.97,7.38,18.8,0,6.58-1.73,12.38-5.18,17.39-3.45,5.01-8.35,8.9-14.69,11.67-6.34,2.77-13.83,4.15-22.45,4.15Z"/>
        <polygon id="Path-3" data-name="Path" class="cls-2" points="401.06 147.87 401.06 54.19 364.22 54.19 364.22 37.43 457.39 37.43 457.39 54.19 420.55 54.19 420.55 147.87 401.06 147.87"/>
        <path id="Shape" class="cls-2" d="m484.5,147.87V37.43h46.58c11.77,0,20.86,2.9,27.25,8.69,6.39,5.8,9.59,13.92,9.59,24.36,0,8.25-2.08,15.06-6.24,20.44-4.16,5.38-10.15,9.01-17.96,10.89,5.18,1.67,9.44,5.69,12.79,12.06l17.96,33.99h-21.46l-18.57-35.25c-1.83-3.45-3.98-5.8-6.47-7.05s-5.66-1.88-9.51-1.88h-14.46v44.18h-19.49Zm19.49-59.06h23.75c14.21,0,21.31-5.95,21.31-17.86s-7.1-17.7-21.31-17.7h-23.75v35.56Z"/>
        <polygon id="Path-4" data-name="Path" class="cls-2" points="603.71 147.87 603.71 37.43 623.19 37.43 623.19 147.87 603.71 147.87"/>
        <polygon id="Path-5" data-name="Path" class="cls-2" points="695.67 147.87 647.87 37.43 668.73 37.43 704.2 122.18 739.67 37.43 759.76 37.43 711.96 147.87 695.67 147.87"/>
        <polygon id="Path-6" data-name="Path" class="cls-2" points="784.59 147.87 784.59 37.43 855.99 37.43 855.99 53.41 803.31 53.41 803.31 83.8 852.64 83.8 852.64 99.78 803.31 99.78 803.31 131.89 855.99 131.89 855.99 147.87 784.59 147.87"/>
        <polygon id="Path-7" data-name="Path" class="cls-2" points="920.7 147.87 883.1 37.43 896.19 37.43 926.48 129.07 957.54 37.43 967.59 37.43 998.34 129.86 1029.24 37.43 1041.72 37.43 1004.12 147.87 993.01 147.87 962.41 57.01 931.51 147.87 920.7 147.87"/>
        <path id="Shape-2" data-name="Shape" class="cls-2" d="m1116.79,149.28c-9.95,0-18.6-2.32-25.96-6.97-7.36-4.65-13.04-11.2-17.05-19.66-4.01-8.46-6.01-18.48-6.01-30.08s1.98-21.62,5.94-30.08c3.96-8.46,9.62-14.99,16.97-19.58,7.36-4.6,16.06-6.89,26.11-6.89s18.9,2.3,26.26,6.89c7.36,4.6,13.04,11.1,17.05,19.5,4.01,8.41,6.01,18.41,6.01,30s-2.03,21.64-6.09,30.16c-4.06,8.51-9.77,15.09-17.13,19.74-7.36,4.65-16.06,6.97-26.11,6.97Zm0-11.44c11.47,0,20.35-3.97,26.64-11.91,6.29-7.94,9.44-19.06,9.44-33.37s-3.15-25.4-9.44-33.29c-6.29-7.88-15.17-11.83-26.64-11.83s-20.04,3.94-26.34,11.83c-6.29,7.88-9.44,18.98-9.44,33.29s3.15,25.3,9.44,33.29c6.29,7.99,15.07,11.98,26.34,11.98Z"/>
        <path id="Shape-3" data-name="Shape" class="cls-2" d="m1203.27,147.87V37.43h42.47c11.57,0,20.42,2.77,26.56,8.3,6.14,5.54,9.21,13.42,9.21,23.65,0,8.15-2.16,14.83-6.47,20.05-4.31,5.22-10.43,8.62-18.34,10.18,4.67,1.67,8.68,5.74,12.03,12.22l18.88,36.03h-13.7l-18.57-35.4c-2.33-4.39-5.02-7.36-8.07-8.93-3.04-1.57-7.05-2.35-12.03-2.35h-19.49v46.68h-12.48Zm12.48-56.86h28.16c16.85,0,25.27-7.21,25.27-21.62s-8.42-21.3-25.27-21.3h-28.16v42.92Z"/>
        <polygon id="Path-8" data-name="Path" class="cls-2" points="1319.89 147.87 1319.89 37.43 1332.38 37.43 1332.38 87.56 1332.68 87.56 1384.75 37.43 1400.73 37.43 1344.71 91.16 1404.08 147.87 1387.64 147.87 1332.68 95.86 1332.38 95.86 1332.38 147.87 1319.89 147.87"/>
        <path id="Path-9" data-name="Path" class="cls-2" d="m1460.42,149.28c-8.42,0-16.04-1.12-22.83-3.37-6.8-2.25-12.69-5.51-17.66-9.79l4.41-10.34c5.18,4.07,10.61,7.1,16.29,9.09,5.68,1.98,12.28,2.98,19.79,2.98,9.13,0,15.91-1.75,20.32-5.25,4.41-3.5,6.62-8.12,6.62-13.86,0-4.6-1.6-8.25-4.8-10.97-3.2-2.72-8.55-4.86-16.06-6.42l-15.83-3.29c-9.54-2.09-16.67-5.51-21.39-10.26-4.72-4.75-7.08-11.1-7.08-19.03,0-6.58,1.65-12.32,4.95-17.23,3.3-4.91,7.89-8.72,13.78-11.44,5.89-2.72,12.69-4.07,20.4-4.07,7.21,0,13.9,1.17,20.09,3.52,6.19,2.35,11.42,5.72,15.68,10.1l-4.41,10.03c-4.57-4.28-9.39-7.39-14.46-9.32-5.07-1.93-10.76-2.9-17.05-2.9-8.02,0-14.41,1.91-19.18,5.72-4.77,3.81-7.16,8.85-7.16,15.12,0,5.01,1.5,8.98,4.49,11.91,2.99,2.92,7.89,5.07,14.69,6.42l15.83,3.45c10.25,2.19,17.84,5.51,22.76,9.95,4.92,4.44,7.38,10.47,7.38,18.09,0,6.16-1.6,11.59-4.8,16.29-3.2,4.7-7.76,8.35-13.7,10.97-5.94,2.61-12.97,3.92-21.08,3.92Z"/>
      </g>
    </g>
  </g>
</svg>
